<svg width="512" height="512" viewBox="0 0 512 512" fill="none" xmlns="http://www.w3.org/2000/svg">
  <defs>
    <linearGradient id="chipBackground" x1="48" y1="40" x2="468" y2="470" gradientUnits="userSpaceOnUse">
      <stop stop-color="#181D25" />
      <stop offset="1" stop-color="#0E1117" />
    </linearGradient>
    <linearGradient id="chipTrail" x1="332" y1="104" x2="428" y2="228" gradientUnits="userSpaceOnUse">
      <stop stop-color="#53D9D1" />
      <stop offset="1" stop-color="#BEDF2A" />
    </linearGradient>
    <filter id="chipShadow" x="44" y="54" width="424" height="408" filterUnits="userSpaceOnUse" color-interpolation-filters="sRGB">
      <feOffset dy="18" />
      <feGaussianBlur stdDeviation="22" />
      <feColorMatrix type="matrix" values="0 0 0 0 0.027451 0 0 0 0 0.0431373 0 0 0 0 0.0823529 0 0 0 0.42 0" />
      <feBlend in2="SourceGraphic" result="shape" />
    </filter>
  </defs>
  <rect x="24" y="24" width="464" height="464" rx="128" fill="url(#chipBackground)" />
  <circle cx="256" cy="246" r="170" fill="#E8DFCF" fill-opacity="0.92" />
  <path d="M126 164C188 106 284 82 374 98" stroke="#FF8F4A" stroke-width="14" stroke-linecap="round" opacity="0.28" />
  <path d="M354 116C398 130 434 156 454 192" stroke="url(#chipTrail)" stroke-width="12" stroke-linecap="round" />

  <g filter="url(#chipShadow)">
    <image href="./nitpickr-mascot.png" x="90" y="96" width="322" height="322" transform="rotate(-8 251 257)" />
  </g>

  <g>
    <rect x="108" y="332" width="296" height="92" rx="30" fill="#161C23" stroke="rgba(255,255,255,0.12)" />
    <rect x="140" y="362" width="148" height="12" rx="6" fill="#F5F2EB" fill-opacity="0.18" />
    <rect x="140" y="386" width="104" height="12" rx="6" fill="#53D9D1" fill-opacity="0.75" />
    <circle cx="342" cy="378" r="18" fill="#BEDF2A" />
    <path d="M334 378L341 385L352 370" stroke="#111318" stroke-width="8" stroke-linecap="round" stroke-linejoin="round" />
  </g>
</svg>
