<svg xmlns="http://www.w3.org/2000/svg" viewBox="0 0 1000 1000">
  <path
    fill="#ffffff"
    d="M1000 260.472C1000 169.744 1000 124.381 982.337 89.724C966.816 59.26 941.294 34.537 909.764 19.497C873.944 2.4 827.031 2.4 733.205 2.4H266.795C172.969 2.4 126.056 2.4 90.236 19.497C58.706 34.537 33.184 59.26 17.663 89.724C0 124.381 0 169.744 0 260.472V739.528C0 830.256 0 875.619 17.663 910.276C33.184 940.74 58.706 965.463 90.236 980.503C126.056 997.6 172.969 997.6 266.795 997.6H733.205C827.031 997.6 873.944 997.6 909.764 980.503C941.294 965.463 966.816 940.74 982.337 910.276C1000 875.619 1000 830.256 1000 739.528V260.472Z"
  />
</svg>
